<svg width="38" height="39" viewBox="0 0 38 39" fill="none" xmlns="http://www.w3.org/2000/svg">
<path fill-rule="evenodd" clip-rule="evenodd" d="M11.1293 0.114803C13.1486 0.0208732 13.7925 0 18.9362 0C24.08 0 24.7238 0.0226126 26.7414 0.114803C28.759 0.206993 30.1361 0.532267 31.3412 1.00365C32.603 1.48548 33.7478 2.23865 34.6946 3.21274C35.6586 4.16769 36.4023 5.32267 36.8774 6.59942C37.3457 7.81702 37.6659 9.20857 37.7588 11.2437C37.8518 13.2875 37.8724 13.9381 37.8724 19.1338C37.8724 24.3312 37.8501 24.9818 37.7588 27.0221C37.6676 29.0573 37.3457 30.4488 36.8774 31.6664C36.4023 32.9433 35.6574 34.1002 34.6946 35.0566C33.7478 36.0307 32.603 36.7821 31.3412 37.2622C30.1361 37.7353 28.7589 38.0588 26.7448 38.1528C24.7238 38.2467 24.08 38.2676 18.9362 38.2676C13.7925 38.2676 13.1486 38.245 11.1293 38.1528C9.11521 38.0606 7.73803 37.7353 6.533 37.2622C5.2693 36.782 4.12434 36.0294 3.17784 35.0566C2.21447 34.1011 1.46896 32.9447 0.993291 31.6682C0.526771 30.4506 0.206577 29.059 0.113617 27.0239C0.0206577 24.98 0 24.3295 0 19.1338C0 13.9364 0.0223791 13.2858 0.113617 11.2472C0.204855 9.20857 0.526771 7.81702 0.993291 6.59942C1.46966 5.32281 2.21574 4.16649 3.17956 3.211C4.12472 2.23779 5.26852 1.48451 6.53127 1.00365C7.73631 0.532267 9.11349 0.208732 11.1276 0.114803H11.1293ZM26.5882 3.55888C24.5913 3.46669 23.9922 3.44756 18.9362 3.44756C13.8802 3.44756 13.2812 3.46669 11.2843 3.55888C9.43712 3.64412 8.43522 3.95548 7.76729 4.21813C6.88418 4.56602 6.2524 4.97826 5.58963 5.64795C4.96137 6.26554 4.47787 7.01737 4.17458 7.84833C3.91463 8.52323 3.60649 9.53558 3.52214 11.402C3.4309 13.4197 3.41196 14.0251 3.41196 19.1338C3.41196 24.2425 3.4309 24.8478 3.52214 26.8656C3.60649 28.732 3.91463 29.7443 4.17458 30.4192C4.47755 31.249 4.96129 32.0021 5.58963 32.6196C6.20075 33.2545 6.94615 33.7433 7.76729 34.0494C8.43522 34.3121 9.43712 34.6235 11.2843 34.7087C13.2812 34.8009 13.8785 34.82 18.9362 34.82C23.9939 34.82 24.5913 34.8009 26.5882 34.7087C28.4353 34.6235 29.4372 34.3121 30.1051 34.0494C30.9883 33.7016 31.62 33.2893 32.2828 32.6196C32.9111 32.0021 33.3949 31.249 33.6979 30.4192C33.9578 29.7443 34.2659 28.732 34.3503 26.8656C34.4415 24.8478 34.4605 24.2425 34.4605 19.1338C34.4605 14.0251 34.4415 13.4197 34.3503 11.402C34.2659 9.53558 33.9578 8.52323 33.6979 7.84833C33.3536 6.956 32.9456 6.31763 32.2828 5.64795C31.6716 5.01318 30.9275 4.52464 30.1051 4.21813C29.4372 3.95548 28.4353 3.64412 26.5882 3.55888ZM16.5175 25.0322C17.8683 25.6004 19.3724 25.677 20.7729 25.2492C22.1734 24.8213 23.3835 23.9154 24.1964 22.6861C25.0093 21.4569 25.3746 19.9807 25.23 18.5095C25.0854 17.0384 24.4398 15.6636 23.4034 14.62C22.7428 13.9528 21.944 13.442 21.0645 13.1243C20.1851 12.8066 19.2468 12.6898 18.3173 12.7824C17.3879 12.8751 16.4903 13.1748 15.6892 13.66C14.8881 14.1452 14.2034 14.8039 13.6845 15.5886C13.1656 16.3732 12.8253 17.2644 12.6882 18.1979C12.551 19.1314 12.6204 20.084 12.8913 20.9872C13.1623 21.8903 13.628 22.7216 14.255 23.421C14.8821 24.1205 15.6548 24.6707 16.5175 25.0322ZM12.0538 12.1795C12.9576 11.2663 14.0306 10.5419 15.2115 10.0476C16.3924 9.55336 17.658 9.29898 18.9362 9.29898C20.2144 9.29898 21.4801 9.55336 22.661 10.0476C23.8419 10.5419 24.9149 11.2663 25.8187 12.1795C26.7225 13.0928 27.4394 14.177 27.9286 15.3702C28.4177 16.5634 28.6695 17.8423 28.6695 19.1338C28.6695 20.4253 28.4177 21.7042 27.9286 22.8974C27.4394 24.0906 26.7225 25.1748 25.8187 26.0881C23.9933 27.9324 21.5176 28.9686 18.9362 28.9686C16.3548 28.9686 13.8791 27.9324 12.0538 26.0881C10.2284 24.2437 9.20296 21.7421 9.20296 19.1338C9.20296 16.5254 10.2284 14.0239 12.0538 12.1795ZM30.8282 10.7636C31.0521 10.5501 31.2314 10.2934 31.3555 10.0087C31.4795 9.72391 31.5457 9.4169 31.5502 9.10582C31.5547 8.79474 31.4973 8.48592 31.3816 8.19763C31.2658 7.90934 31.094 7.64745 30.8763 7.42746C30.6586 7.20747 30.3994 7.03385 30.1141 6.9169C29.8288 6.79994 29.5231 6.74201 29.2153 6.74654C28.9074 6.75108 28.6036 6.81798 28.3217 6.9433C28.0399 7.06861 27.7859 7.24978 27.5746 7.47609C27.1637 7.91622 26.9387 8.50083 26.9474 9.10582C26.9562 9.71081 27.1979 10.2885 27.6213 10.7164C28.0447 11.1442 28.6165 11.3885 29.2153 11.3973C29.814 11.4061 30.3926 11.1788 30.8282 10.7636Z" fill="#FCFDF8"/>
</svg>
