<svg width="44" height="36" viewBox="0 0 44 36" fill="none" xmlns="http://www.w3.org/2000/svg">
<path d="M44 4.41104C42.3816 5.11348 40.6407 5.58858 38.8149 5.80076C40.679 4.70757 42.1096 2.97783 42.7848 0.913346C41.0405 1.92615 39.1077 2.66088 37.0524 3.0569C35.4057 1.34035 33.0596 0.267578 30.4616 0.267578C25.4772 0.267578 21.4345 4.22456 21.4345 9.10341C21.4345 9.79596 21.5146 10.4701 21.6695 11.1172C14.1671 10.7488 7.5151 7.23134 3.06246 1.88398C2.28557 3.18869 1.8399 4.70757 1.8399 6.3266C1.8399 9.39137 3.43474 12.097 5.85562 13.6811C4.37657 13.6356 2.98369 13.2383 1.76719 12.5747C1.76652 12.6123 1.76652 12.6499 1.76652 12.6868C1.76652 16.9679 4.87946 20.5388 9.00829 21.3499C8.2516 21.5529 7.45249 21.6603 6.6305 21.6603C6.04749 21.6603 5.48267 21.6056 4.93197 21.5028C6.08048 25.0124 9.41357 27.5671 13.3647 27.6389C10.2746 30.0092 6.38275 31.4213 2.15227 31.4213C1.4252 31.4213 0.704856 31.3798 0 31.2974C3.99284 33.8054 8.73901 35.2676 13.8366 35.2676C30.4408 35.2676 39.5211 21.804 39.5211 10.1268C39.5211 9.7439 39.5123 9.36237 39.4948 8.98414C41.26 7.73873 42.7902 6.18295 44 4.41104Z" fill="#FCFDF8"/>
</svg>
