<svg width="38" height="38" viewBox="0 0 38 38" fill="none" xmlns="http://www.w3.org/2000/svg">
<path fill-rule="evenodd" clip-rule="evenodd" d="M19 0C24.0391 0 28.8718 2.00178 32.435 5.56497C35.9982 9.12816 38 13.9609 38 19C38 24.0391 35.9982 28.8718 32.435 32.435C28.8718 35.9982 24.0391 38 19 38C13.9609 38 9.12816 35.9982 5.56497 32.435C2.00178 28.8718 0 24.0391 0 19C0 13.9609 2.00178 9.12816 5.56497 5.56497C9.12816 2.00178 13.9609 0 19 0ZM33.3055 11.6923C31.4308 8.04725 28.2407 5.25106 24.3814 3.87015C25.6792 6.32554 26.6175 8.95631 27.1671 11.6923H33.3055ZM35.0068 20.4469C35.0535 19.966 35.077 19.4832 35.0769 19C35.074 17.5166 34.8644 16.0409 34.4543 14.6154H27.6085C27.702 15.5829 27.7692 16.5563 27.7692 17.5385C27.7632 19.5023 27.5615 21.4607 27.1671 23.3846H34.4543C34.732 22.4229 34.9162 21.4408 35.0097 20.4469H35.0068ZM24.6737 20.4469L24.6912 20.2978C24.791 19.3814 24.8427 18.4603 24.8462 17.5385C24.8265 16.5607 24.7524 15.5849 24.624 14.6154H13.376C13.2466 15.5847 13.1724 16.5607 13.1538 17.5385C13.161 19.5065 13.3894 21.4676 13.8349 23.3846H24.1651C24.3902 22.4142 24.5597 21.4349 24.6737 20.4469ZM24.1125 11.6923C23.4238 8.60072 22.1809 5.65941 20.444 3.01077C19.9646 2.96985 19.4852 2.92308 19 2.92308C18.6955 2.92456 18.3912 2.93919 18.088 2.96692L17.556 3.01077L17.5385 3.04C15.8107 5.68089 14.5739 8.61199 13.8875 11.6923H24.1125ZM10.8329 11.6923C11.3936 8.9582 12.3446 6.31893 13.6566 3.85554C9.78057 5.23172 6.57535 8.03446 4.69446 11.6923H10.8329ZM3.54569 14.6154C3.13615 16.041 2.92661 17.5167 2.92308 19C2.92661 20.4833 3.13615 21.959 3.54569 23.3846H10.8329C10.4366 21.461 10.2349 19.5024 10.2308 17.5385C10.2308 16.5563 10.298 15.5829 10.3915 14.6154H3.54569ZM11.5958 26.3077H4.69738C5.80235 28.466 7.37995 30.3473 9.31274 31.8115C11.2455 33.2756 13.4837 34.2849 15.8606 34.7642C13.9898 32.1953 12.5494 29.3392 11.5958 26.3077ZM19 34.0363C20.8691 31.7245 22.3302 29.1108 23.3203 26.3077H14.6797C15.6699 29.1108 17.1309 31.7245 19 34.0363ZM26.4042 26.3077C25.4506 29.3391 24.0102 32.1953 22.1394 34.7642C24.5161 34.2845 26.7541 33.275 28.6869 31.8109C30.6196 30.3468 32.1973 28.4658 33.3026 26.3077H26.4042Z" fill="#FCFDF8"/>
</svg>
