<svg width="44" height="32" viewBox="0 0 44 32" fill="none" xmlns="http://www.w3.org/2000/svg">
<path d="M21.9511 0.65332H22.1937C24.4349 0.661585 35.7908 0.744234 38.8527 1.57623C39.7783 1.83015 40.6218 2.32509 41.2988 3.01159C41.9758 3.69808 42.4627 4.55209 42.7107 5.48827C42.9861 6.53516 43.1796 7.9209 43.3105 9.35072L43.3378 9.63724L43.3978 10.3535L43.4196 10.64C43.5968 13.1581 43.6186 15.5163 43.6213 16.0315V16.2381C43.6186 16.7726 43.5941 19.2906 43.3978 21.9133L43.376 22.2026L43.3514 22.4891C43.2151 24.065 43.0133 25.6298 42.7107 26.7813C42.4634 27.7179 41.9768 28.5723 41.2997 29.2589C40.6226 29.9455 39.7787 30.4402 38.8527 30.6934C35.6899 31.5529 23.6688 31.6135 22.0029 31.6163H21.6157C20.7732 31.6163 17.2888 31.5998 13.6352 31.473L13.1717 31.4565L12.9345 31.4455L12.4683 31.4262L12.0021 31.4069C8.97565 31.2719 6.09374 31.0543 4.76593 30.6906C3.84025 30.4377 2.99661 29.9434 2.3195 29.2573C1.6424 28.5712 1.15562 27.7174 0.907926 26.7813C0.605284 25.6325 0.403523 24.065 0.267197 22.4891L0.245385 22.1998L0.223573 21.9133C0.0890138 20.0466 0.0144501 18.1759 0 16.3042L0 15.9654C0.00545301 15.3731 0.027265 13.3261 0.174496 11.0671L0.193582 10.7833L0.201761 10.64L0.223573 10.3535L0.283556 9.63724L0.310821 9.35072C0.441694 7.9209 0.635275 6.5324 0.910652 5.48827C1.15793 4.55172 1.64452 3.6973 2.32165 3.01069C2.99878 2.32408 3.84265 1.82939 4.76866 1.57623C6.09646 1.21809 8.97838 0.99769 12.0048 0.859942L12.4683 0.840657L12.9373 0.824128L13.1717 0.815863L13.638 0.796579C16.2328 0.712207 18.8287 0.665367 21.4249 0.656075H21.9511V0.65332ZM17.4496 9.49674V22.7701L28.7837 16.1362L17.4496 9.49674Z" fill="#FCFDF8"/>
</svg>
